<svg width="120" height="32" viewBox="0 0 120 32" fill="none" xmlns="http://www.w3.org/2000/svg">
<path d="M16.083 9.13215C14.8667 9.13215 14.515 9.67161 14.515 10.8614V12.8352H17.7593L17.4341 16.0241H14.5163V25.7015H10.6229V16.0241H8V12.8352H10.6229V10.9156C10.6229 7.69908 11.9199 6.00005 15.5385 6.00005C16.2967 5.99829 17.0545 6.04328 17.8072 6.13491V9.13594L16.083 9.13215Z" fill="#1877F2"/>
<path d="M18.0293 18.8626C18.0293 15.2679 19.7321 12.5605 23.3003 12.5605C25.2464 12.5605 26.4349 13.5613 27.0035 14.8041V12.8353H30.7329V25.7015H27.0035V23.7554C26.4627 24.9995 25.2464 25.9724 23.3003 25.9724C19.7321 25.9724 18.0293 23.2689 18.0293 19.6705V18.8626ZM21.9214 19.7285C21.9214 21.6468 22.6235 22.9172 24.4347 22.9172C26.0304 22.9172 26.8408 21.7552 26.8408 19.9175V18.6256C26.8408 16.7879 26.0304 15.6258 24.4347 15.6258C22.6235 15.6258 21.9214 16.8963 21.9214 18.8147V19.7285Z" fill="#1877F2"/>
<path d="M38.8424 12.5642C40.355 12.5642 41.788 12.8894 42.572 13.4289L41.7073 16.1866C40.8964 15.8004 40.0103 15.5973 39.1122 15.5917C37.0035 15.5917 36.0873 16.808 36.0873 18.8902V19.6464C36.0873 21.7286 37.006 22.9449 39.1122 22.9449C40.0103 22.9393 40.8964 22.7363 41.7073 22.35L42.572 25.1065C41.788 25.6473 40.3561 25.9725 38.8424 25.9725C34.2735 25.9725 32.1925 23.5121 32.1925 19.5658V18.9709C32.1925 15.0245 34.2735 12.5642 38.8424 12.5642Z" fill="#1877F2"/>
<path d="M43.0848 19.7597V18.6254C43.0848 14.9765 45.1658 12.5754 49.4108 12.5754C53.4114 12.5754 55.1683 15.008 55.1683 18.5762V20.6307H46.9756C47.0576 22.3877 47.8416 23.1716 50.0007 23.1716C51.4615 23.1716 53.0017 22.8742 54.1373 22.3877L54.8494 25.0535C53.8222 25.5954 51.7135 26 49.8494 26C44.9224 25.9987 43.0848 23.541 43.0848 19.7597ZM46.9769 18.0834H51.6807V17.7595C51.6807 16.3541 51.1135 15.2387 49.412 15.2387C47.6538 15.2399 46.9769 16.3491 46.9769 18.0784V18.0834Z" fill="#1877F2"/>
<path d="M69.5957 19.6741C69.5957 23.2687 67.8664 25.976 64.302 25.976C62.356 25.976 61.0047 25.0031 60.464 23.759V25.7051H56.7886V6.37427L60.6809 6.02136V14.6173C61.2479 13.483 62.492 12.5629 64.3033 12.5629C67.8714 12.5629 69.5969 15.2664 69.5969 18.8649L69.5957 19.6741ZM65.7036 18.7817C65.7036 16.9705 65.0015 15.6193 63.1361 15.6193C61.5404 15.6193 60.6758 16.7537 60.6758 18.5927V19.9438C60.6758 21.7815 61.5404 22.917 63.1361 22.917C65.0015 22.917 65.7036 21.5659 65.7036 19.7547V18.7817Z" fill="#1877F2"/>
<path d="M70.8978 19.5922V18.9444C70.8978 15.2401 73.0065 12.5642 77.3045 12.5642C81.6025 12.5642 83.7123 15.2401 83.7123 18.9444V19.5922C83.7123 23.2954 81.6038 25.9725 77.3058 25.9725C73.0077 25.9725 70.8978 23.2954 70.8978 19.5922ZM79.8189 18.6734C79.8189 16.9706 79.1156 15.6195 77.2982 15.6195C75.4806 15.6195 74.7836 16.9706 74.7836 18.6734V19.8632C74.7836 21.566 75.4869 22.9171 77.2982 22.9171C79.1094 22.9171 79.8189 21.566 79.8189 19.8632V18.6734Z" fill="#1877F2"/>
<path d="M85.007 19.5922V18.9444C85.007 15.2401 87.1157 12.5642 91.4137 12.5642C95.7116 12.5642 97.8204 15.2401 97.8204 18.9444V19.5922C97.8204 23.2954 95.7116 25.9725 91.4137 25.9725C87.1157 25.9725 85.007 23.2954 85.007 19.5922ZM93.9281 18.6734C93.9281 16.9706 93.2248 15.6195 91.4137 15.6195C89.6024 15.6195 88.9004 16.9706 88.9004 18.6734V19.8632C88.9004 21.566 89.6024 22.9171 91.4137 22.9171C93.2248 22.9171 93.9281 21.566 93.9281 19.8632V18.6734Z" fill="#1877F2"/>
<path d="M103.172 18.9708L107.01 12.8351H111.145L107.118 19.1876L111.308 25.7013H107.172L103.172 19.3993V25.7013H99.2784V6.37427L103.172 6.02136V18.9708Z" fill="#1877F2"/>
</svg>
