<svg width="82" height="32" viewBox="0 0 82 32" fill="none" xmlns="http://www.w3.org/2000/svg">
<path d="M17.9994 6H18.5407C20.4199 6.04112 22.2684 6.80187 23.5961 8.1486C23.1059 8.65234 22.6055 9.13552 22.1255 9.63926C21.3799 8.96075 20.4812 8.43645 19.5007 8.2514C18.0505 7.94299 16.4879 8.22056 15.2726 9.05327C13.9449 9.92711 13.0461 11.4075 12.8521 12.9907C12.6376 14.5533 13.0768 16.1981 14.0879 17.4112C15.0581 18.5935 16.539 19.3337 18.0709 19.3851C19.5007 19.4673 20.9918 19.0252 22.0335 18.0178C22.8506 17.3084 23.2285 16.229 23.351 15.1804C21.6557 15.1804 19.9603 15.1907 18.265 15.1804V13.0626H25.4038C25.7715 15.3346 25.2404 17.8944 23.5246 19.5187C22.3808 20.6701 20.7978 21.3486 19.1841 21.4823C17.6215 21.6365 16.0079 21.3383 14.6189 20.5776C12.9542 19.6832 11.6265 18.172 10.9729 16.3935C10.3601 14.7589 10.3499 12.9084 10.9218 11.2636C11.4427 9.76262 12.4436 8.43645 13.7304 7.51122C14.9662 6.59626 16.4675 6.09252 17.9994 6Z" fill="#3780FF"/>
<path d="M58.9534 6.53455H61.139V21.2149C60.4139 21.2149 59.6785 21.2252 58.9534 21.2047C58.9636 16.3215 58.9534 11.428 58.9534 6.53455Z" fill="#38B137"/>
<path d="M30.2652 11.6233C31.6133 11.3663 33.0738 11.6542 34.187 12.4663C35.1981 13.1859 35.9028 14.3168 36.1172 15.5504C36.393 16.9794 36.0457 18.542 35.1266 19.6729C34.1359 20.9373 32.512 21.6158 30.929 21.513C29.4788 21.4308 28.0694 20.7009 27.2115 19.5084C26.2413 18.1925 26.0064 16.3831 26.5375 14.8411C27.0685 13.1859 28.5698 11.9214 30.2652 11.6233ZM30.5716 13.5766C30.0201 13.7205 29.5094 14.0392 29.1418 14.4915C28.1511 15.6841 28.2124 17.6271 29.3052 18.7373C29.9282 19.3747 30.8678 19.6729 31.7359 19.4981C32.5427 19.3542 33.2474 18.8093 33.6355 18.0897C34.3095 16.8663 34.1155 15.1803 33.084 14.2243C32.4201 13.6074 31.4499 13.3504 30.5716 13.5766Z" fill="#FA3913"/>
<path d="M41.0909 11.6233C42.6331 11.3252 44.3182 11.757 45.4723 12.8467C47.3515 14.543 47.5557 17.7196 45.9523 19.6729C44.9821 20.9065 43.4093 21.585 41.8569 21.5131C40.376 21.4719 38.9156 20.7317 38.0373 19.5084C37.0466 18.1616 36.8321 16.3112 37.3938 14.7383C37.9555 13.1345 39.4262 11.9112 41.0909 11.6233ZM41.3973 13.5766C40.8458 13.7205 40.3352 14.0392 39.9675 14.4813C38.9871 15.6532 39.0279 17.5654 40.0798 18.6859C40.7028 19.3542 41.6731 19.6831 42.5718 19.4981C43.3684 19.3439 44.0833 18.8093 44.4714 18.0897C45.1353 16.856 44.9412 15.1701 43.8995 14.214C43.2357 13.5972 42.2654 13.3504 41.3973 13.5766Z" fill="#FCBD06"/>
<path d="M50.2724 12.2196C51.4469 11.4794 53.0095 11.2738 54.2759 11.9112C54.6742 12.086 55.001 12.3841 55.3176 12.6822C55.3278 12.4047 55.3176 12.1168 55.3278 11.829C56.0121 11.8392 56.6963 11.829 57.3908 11.8392V20.9065C57.3806 22.2738 57.0334 23.7234 56.0529 24.7206C54.9806 25.8206 53.3363 26.1598 51.8554 25.9336C50.2724 25.6972 48.8936 24.5355 48.2809 23.0654C48.8936 22.7673 49.5371 22.5308 50.1703 22.2533C50.5277 23.0963 51.2528 23.8159 52.1618 23.9804C53.0707 24.1449 54.1227 23.9187 54.715 23.1579C55.3482 22.3766 55.3482 21.3075 55.3176 20.3514C54.8478 20.814 54.3065 21.2252 53.6529 21.3794C52.2333 21.7804 50.6707 21.2869 49.5779 20.3206C48.4749 19.3542 47.8213 17.8635 47.8826 16.3832C47.9132 14.7075 48.8528 13.0934 50.2724 12.2196ZM52.3865 13.5355C51.7635 13.6383 51.1813 13.9878 50.783 14.471C49.823 15.6224 49.823 17.4626 50.7933 18.5934C51.3448 19.2617 52.2333 19.6318 53.0912 19.5392C53.898 19.457 54.6435 18.943 55.0419 18.2336C55.7159 17.0308 55.6036 15.3962 54.6946 14.3476C54.1329 13.7 53.2342 13.3813 52.3865 13.5355Z" fill="#3780FF"/>
<path d="M63.7637 12.7439C64.9893 11.5925 66.8787 11.2018 68.4515 11.8084C69.9426 12.3738 70.8924 13.8028 71.3724 15.2729C69.1562 16.1981 66.9502 17.1131 64.7339 18.0383C65.0403 18.6243 65.5101 19.1589 66.1433 19.3747C67.0319 19.6934 68.094 19.5803 68.8396 18.9841C69.1357 18.7579 69.3706 18.4598 69.5953 18.1719C70.157 18.5523 70.7187 18.9224 71.2805 19.3028C70.4838 20.5056 69.1459 21.3486 67.7059 21.4822C66.1127 21.6775 64.4173 21.0607 63.3858 19.8065C61.6905 17.8327 61.8539 14.5224 63.7637 12.7439ZM64.8565 14.6458C64.5093 15.1495 64.3663 15.7663 64.3765 16.3729C65.8574 15.756 67.3382 15.1392 68.8191 14.5121C68.574 13.9364 67.9817 13.5869 67.3791 13.4944C66.4089 13.3196 65.3978 13.8439 64.8565 14.6458Z" fill="#FA3913"/>
</svg>
