<svg width="91" height="32" viewBox="0 0 91 32" fill="none" xmlns="http://www.w3.org/2000/svg">
<path d="M10.9631 6.07714C9.38708 6.74156 7.65453 8.61865 7.10734 10.9748C6.41436 13.9601 9.29817 15.2225 9.5347 14.8086C9.81309 14.3223 9.01795 14.1578 8.85428 12.6088C8.64275 10.6083 9.56618 8.37285 10.7283 7.39202C10.9444 7.20979 10.9341 7.46342 10.9341 7.93257C10.9341 8.77151 10.8881 16.3027 10.8881 17.8745C10.8881 20.0013 10.8009 20.6729 10.6442 21.3365C10.4855 22.0091 10.2303 22.4635 10.4237 22.6385C10.6397 22.8343 11.562 22.3686 12.096 21.618C12.7362 20.7178 12.9604 19.6368 13.0006 18.4627C13.0492 17.0475 13.0471 14.8017 13.0492 13.5208C13.0511 12.346 13.0688 8.90587 13.0288 6.8378C13.0189 6.33055 11.6222 5.79836 10.963 6.07652L10.9631 6.07714ZM66.9265 16.0304C66.8757 17.1361 66.6327 18.0003 66.3311 18.6099C65.7472 19.7901 64.5357 20.1565 64.0213 18.46C63.741 17.5353 63.7279 15.9908 63.9294 14.7004C64.1346 13.3857 64.7074 12.3929 65.656 12.4824C66.5916 12.5709 67.0296 13.7852 66.9265 16.0304ZM51.1537 22.8903C51.141 24.7275 50.8539 26.3383 50.2383 26.8061C49.3652 27.4695 48.1916 26.9719 48.4346 25.6313C48.6496 24.445 49.6665 23.2335 51.1562 21.7532C51.1562 21.7532 51.1592 22.0908 51.1537 22.8903ZM50.9152 16.0197C50.8618 17.0268 50.6026 18.0384 50.3198 18.6101C49.7361 19.7902 48.5157 20.1591 48.01 18.4602C47.6642 17.2994 47.7471 15.797 47.9181 14.8503C48.1401 13.6221 48.6783 12.4827 49.6447 12.4827C50.5843 12.4827 51.0477 13.5209 50.9152 16.0197ZM41.778 16.0043C41.7207 17.0709 41.5141 17.9625 41.1826 18.6101C40.5828 19.7821 39.3961 20.1538 38.8728 18.4602C38.4955 17.2389 38.624 15.5738 38.7809 14.6742C39.0138 13.3394 39.597 12.393 40.5075 12.4827C41.4427 12.5747 41.8974 13.7852 41.778 16.0043ZM83.6518 17.2501C83.4232 17.2501 83.3188 17.4875 83.2325 17.887C82.9332 19.2761 82.6185 19.5898 82.2127 19.5898C81.7593 19.5898 81.352 18.902 81.2473 17.525C81.165 16.4423 81.1782 14.449 81.2834 12.4661C81.3049 12.0587 81.1933 11.6556 80.1084 11.2587C79.6416 11.0879 78.963 10.8365 78.6251 11.658C77.6704 13.9788 77.2969 15.8213 77.209 16.5698C77.2045 16.6085 77.1573 16.6164 77.149 16.5259C77.0931 15.9264 76.9679 14.837 76.9523 12.5482C76.9493 12.1017 76.8554 11.7216 76.366 11.4104C76.0484 11.2084 75.0842 10.8513 74.737 11.2762C74.4362 11.6237 74.0878 12.5588 73.7258 13.6673C73.4316 14.5683 73.2267 15.1777 73.2267 15.1777C73.2267 15.1777 73.2306 12.7468 73.2341 11.8247C73.2356 11.4768 72.9987 11.3609 72.9273 11.3399C72.6058 11.2459 71.9723 11.0889 71.7033 11.0889C71.3715 11.0889 71.2903 11.2757 71.2903 11.5478C71.2903 11.5835 71.2379 14.7484 71.2379 16.9615C71.2379 17.0576 71.2379 17.1625 71.2389 17.2739C71.0554 18.2911 70.4602 19.6718 69.813 19.6718C69.165 19.6718 68.8592 19.0946 68.8592 16.4562C68.8592 14.9171 68.9051 14.2479 68.9277 13.1347C68.9408 12.4935 68.966 12.0011 68.9646 11.8894C68.9598 11.5467 68.3715 11.374 68.0978 11.3102C67.8228 11.2458 67.5838 11.2209 67.3972 11.2316C67.133 11.2466 66.9462 11.4211 66.9462 11.6612C66.9462 11.7899 66.9476 12.0346 66.9476 12.0346C66.6074 11.4962 66.0602 11.1214 65.6962 11.0128C64.7156 10.7195 63.6923 10.9794 62.9206 12.0671C62.3071 12.9314 61.9374 13.9103 61.7918 15.3167C61.6854 16.3449 61.7202 17.3875 61.9093 18.2692C61.6808 19.2642 61.2566 19.6718 60.7921 19.6718C60.1177 19.6718 59.6289 18.5633 59.6856 16.646C59.7231 15.385 59.9736 14.5 60.2475 13.2198C60.3643 12.674 60.2694 12.3883 60.0314 12.1144C59.8132 11.8632 59.3482 11.7349 58.6797 11.8927C58.2035 12.0053 57.5227 12.1263 56.8998 12.2192C56.8998 12.2192 56.9374 12.0682 56.9682 11.8019C57.1302 10.4054 55.6236 10.5187 55.1429 10.9648C54.8559 11.2311 54.6606 11.5451 54.5865 12.1098C54.4689 13.006 55.1946 13.4286 55.1946 13.4286C54.9565 14.5263 54.3729 15.9602 53.7704 16.9969C53.4477 17.5524 53.2008 17.964 52.8821 18.4015C52.8809 18.2386 52.88 18.0757 52.8794 17.9135C52.8722 15.6058 52.9026 13.7895 52.9161 13.1349C52.9292 12.4937 52.9547 12.0144 52.9533 11.9026C52.9497 11.652 52.8044 11.5574 52.5022 11.4375C52.2349 11.3315 51.9189 11.2582 51.5912 11.2326C51.1775 11.2001 50.9283 11.4211 50.9347 11.6824C50.936 11.7318 50.936 12.0347 50.936 12.0347C50.5958 11.4963 50.0486 11.1215 49.6845 11.0129C48.7039 10.7197 47.6807 10.9796 46.9089 12.0672C46.2956 12.9315 45.894 14.1443 45.7802 15.3061C45.6742 16.3888 45.6938 17.309 45.8383 18.0841C45.6824 18.8603 45.2341 19.6719 44.7272 19.6719C44.0792 19.6719 43.7104 19.0947 43.7104 16.4563C43.7104 14.9172 43.7563 14.248 43.7789 13.1349C43.7919 12.4937 43.8172 12.0012 43.8158 11.8896C43.811 11.5469 43.2227 11.3742 42.949 11.3103C42.6626 11.2436 42.4153 11.219 42.2254 11.2331C41.9749 11.2519 41.7988 11.4779 41.7988 11.6464V12.0347C41.4586 11.4963 40.9114 11.1215 40.5473 11.0129C39.5667 10.7197 38.5492 10.9838 37.7717 12.0672C37.2647 12.7737 36.8542 13.5569 36.643 15.2907C36.5819 15.7917 36.555 16.2609 36.5585 16.6994C36.3563 17.9447 35.4633 19.3801 34.7329 19.3801C34.3054 19.3801 33.8984 18.545 33.8984 16.7654C33.8984 14.3949 34.044 11.0198 34.0687 10.6945C34.0687 10.6945 34.9916 10.6787 35.1703 10.6766C35.6306 10.6715 36.0476 10.6825 36.6607 10.6509C36.9683 10.6351 37.2646 9.52349 36.9472 9.38592C36.8033 9.32365 35.7866 9.26909 35.3835 9.26047C35.0446 9.25274 34.1011 9.18241 34.1011 9.18241C34.1011 9.18241 34.1857 6.94216 34.2054 6.70551C34.2221 6.50827 33.9687 6.40672 33.8234 6.3451C33.4702 6.19459 33.154 6.12253 32.7794 6.04474C32.2617 5.93718 32.0269 6.04239 31.981 6.48242C31.9119 7.15024 31.8761 9.10631 31.8761 9.10631C31.4963 9.10631 30.1987 9.03151 29.8187 9.03151C29.4656 9.03151 29.0846 10.5607 29.5727 10.5795C30.1343 10.6015 31.1129 10.6204 31.7617 10.6401C31.7617 10.6401 31.7328 14.0708 31.7328 15.13C31.7328 15.2427 31.7338 15.3512 31.734 15.4565C31.3769 17.331 30.1192 18.3435 30.1192 18.3435C30.3893 17.1034 29.8376 16.1722 28.8438 15.3839C28.4777 15.0934 27.7549 14.5435 26.9461 13.9408C26.9461 13.9408 27.4145 13.4759 27.8299 12.5405C28.1242 11.8779 28.1369 11.1196 27.4145 10.9524C26.2209 10.6759 25.2367 11.5588 24.9431 12.5014C24.7157 13.2316 24.837 13.7735 25.2825 14.3363C25.3151 14.3775 25.3503 14.4195 25.3867 14.4618C25.1173 14.9849 24.7471 15.6891 24.4336 16.2352C23.5635 17.7515 22.9061 18.9509 22.4093 18.9509C22.0122 18.9509 22.0176 17.7332 22.0176 16.5932C22.0176 15.6103 22.0896 14.1327 22.1472 12.6028C22.1662 12.0969 21.915 11.8087 21.494 11.5476C21.2381 11.389 20.6921 11.0772 20.3759 11.0772C19.9025 11.0772 18.5369 11.142 17.2466 14.9013C17.084 15.3751 16.7645 16.2385 16.7645 16.2385L16.792 11.7178C16.792 11.6118 16.7359 11.5094 16.6076 11.4393C16.3902 11.3203 15.8094 11.0772 15.293 11.0772C15.047 11.0772 14.9242 11.1924 14.9242 11.4222L14.8792 18.4948C14.8792 19.0322 14.8931 19.6591 14.9458 19.9333C14.9984 20.2078 15.0835 20.4312 15.189 20.5641C15.2943 20.6967 15.4161 20.7978 15.6169 20.8396C15.8039 20.8784 16.8274 21.0107 16.8806 20.6168C16.9443 20.1447 16.9468 19.634 17.4842 17.7295C18.3209 14.7644 19.4118 13.3177 19.9246 12.8039C20.0143 12.7141 20.1167 12.7087 20.1118 12.8557C20.0899 13.5058 20.0129 15.1301 19.9611 16.5102C19.8221 20.2032 20.4892 20.8878 21.4424 20.8878C22.1717 20.8878 23.1997 20.1579 24.3018 18.3105C24.9888 17.1592 25.6559 16.0303 26.1351 15.2167C26.4691 15.5281 26.8439 15.8632 27.2185 16.2213C28.0889 17.0533 28.3747 17.844 28.1851 18.594C28.0401 19.1674 27.4939 19.7583 26.5219 19.184C26.2386 19.0164 26.1176 18.887 25.8328 18.698C25.6797 18.5966 25.446 18.5662 25.3059 18.6725C24.942 18.9489 24.7339 19.3004 24.615 19.7356C24.4994 20.1591 24.9205 20.383 25.357 20.5788C25.7328 20.7473 26.5407 20.9 27.0558 20.9174C29.0632 20.985 30.6712 19.9412 31.7905 17.2488C31.9909 19.5741 32.8437 20.8898 34.3253 20.8898C35.3159 20.8898 36.3091 19.6003 36.7434 18.3316C36.868 18.8488 37.0526 19.2985 37.2909 19.6787C38.4326 21.5006 40.6474 21.1085 41.76 19.5614C42.1039 19.0834 42.1563 18.9116 42.1563 18.9116C42.3185 20.3724 43.4865 20.8828 44.1553 20.8828C44.9043 20.8828 45.6776 20.5262 46.2196 19.2972C46.2831 19.4306 46.3525 19.558 46.4282 19.6787C47.5698 21.5006 49.7847 21.1084 50.8972 19.5614C50.9497 19.4888 50.9952 19.423 51.0349 19.3639L51.0676 20.3234C51.0676 20.3234 50.4329 20.9098 50.0433 21.2695C48.3287 22.854 47.0249 24.0561 46.929 25.4559C46.8058 27.2409 48.2431 27.9042 49.3305 27.9912C50.4853 28.0835 51.4742 27.441 52.082 26.5418C52.6166 25.7504 52.9666 24.0471 52.9409 22.3647C52.9307 21.6911 52.9138 20.8345 52.9006 19.9163C53.5033 19.2114 54.1822 18.3205 54.8075 17.2777C55.4888 16.1412 56.219 14.615 56.5929 13.4273C56.5929 13.4273 57.2273 13.4327 57.9043 13.3881C58.1209 13.3739 58.1831 13.4184 58.1431 13.5783C58.0947 13.7715 57.2877 16.9067 58.0242 18.9952C58.5284 20.425 59.6649 20.885 60.3387 20.885C61.1275 20.885 61.882 20.285 62.2864 19.3942C62.3351 19.4935 62.3861 19.5896 62.4417 19.6783C63.5833 21.5002 65.7904 21.1057 66.9107 19.561C67.1635 19.2125 67.307 18.9112 67.307 18.9112C67.5474 20.423 68.7148 20.8901 69.3834 20.8901C70.0799 20.8901 70.7409 20.6025 71.2772 19.3244C71.2996 19.8872 71.3348 20.3473 71.3906 20.4924C71.4245 20.5811 71.6224 20.6925 71.7664 20.7463C72.4035 20.9842 73.0534 20.8717 73.2938 20.8227C73.4603 20.7888 73.5902 20.6542 73.608 20.3067C73.6546 19.3943 73.626 17.8613 73.9006 16.722C74.3616 14.8099 74.7916 14.0682 74.9956 13.701C75.1098 13.4953 75.2386 13.4613 75.2433 13.6791C75.2529 14.1196 75.2747 15.4134 75.4533 17.1516C75.5844 18.4299 75.7597 19.1856 75.8943 19.4247C76.2786 20.1086 76.7532 20.1409 77.1397 20.1409C77.3855 20.1409 77.8997 20.0725 77.8537 19.6373C77.8312 19.4252 77.8705 18.1142 78.325 16.2305C78.6218 15.0003 79.1167 13.8888 79.2951 13.4825C79.361 13.3326 79.3915 13.4507 79.3905 13.4738C79.3529 14.3209 79.2686 17.0919 79.6112 18.6074C80.0757 20.6605 81.4195 20.8902 81.8877 20.8902C82.8874 20.8902 83.7049 20.1244 83.9803 18.1092C84.0467 17.6242 83.9484 17.2498 83.6541 17.2498" fill="#262626"/>
</svg>
