<svg width="121" height="32" viewBox="0 0 121 32" fill="none" xmlns="http://www.w3.org/2000/svg">
<path d="M97.4678 23.0413H94.5043V18.4004C94.5043 17.2937 94.4846 15.8691 92.963 15.8691C91.4196 15.8691 91.1834 17.0749 91.1834 18.3198V23.041H88.2199V13.4974H91.0649V14.8016H91.1047C91.3893 14.3149 91.8008 13.9144 92.295 13.6429C92.7896 13.3714 93.348 13.2391 93.9117 13.26C96.9153 13.26 97.4691 15.2357 97.4691 17.8059L97.4678 23.0413ZM84.8761 12.1929C84.536 12.1929 84.2035 12.0921 83.9207 11.9032C83.6377 11.7143 83.4172 11.4458 83.287 11.1315C83.157 10.8173 83.1227 10.4715 83.1891 10.1379C83.2555 9.80433 83.4191 9.49786 83.6596 9.25729C83.9 9.01675 84.2066 8.8529 84.54 8.78649C84.8737 8.72007 85.2194 8.75407 85.5337 8.88417C85.8479 9.01428 86.1165 9.23466 86.3057 9.51743C86.4946 9.80019 86.5956 10.1327 86.5956 10.4728C86.5956 10.6987 86.5511 10.9223 86.4647 11.1309C86.3783 11.3396 86.2517 11.5292 86.0921 11.6889C85.9325 11.8487 85.743 11.9754 85.5343 12.0618C85.3256 12.1483 85.1021 12.1928 84.8761 12.1929ZM86.3579 23.0413H83.3913V13.4974H86.3579V23.0413ZM98.9452 6.00136H81.9022C81.5154 5.997 81.1425 6.14639 80.8659 6.4167C80.589 6.68702 80.4309 7.05615 80.4263 7.44297V24.5567C80.4309 24.9437 80.589 25.3131 80.8656 25.5837C81.1425 25.8543 81.5151 26.004 81.9022 25.9999H98.9452C99.333 26.0048 99.7068 25.8555 99.9846 25.5849C100.262 25.3143 100.422 24.9445 100.427 24.5567V7.44173C100.421 7.05414 100.262 6.6846 99.9843 6.41429C99.7065 6.14398 99.333 5.99502 98.9452 6.00013V6.00136ZM72.3604 15.8009C70.8787 15.8009 69.9896 16.7903 69.9896 18.2319C69.9896 19.6735 70.8783 20.6638 72.3604 20.6638C73.8424 20.6638 74.7333 19.6759 74.7333 18.2319C74.7333 16.7878 73.844 15.8009 72.3604 15.8009ZM77.4616 23.0358H74.7333V21.7701H74.6929C74.3506 22.2305 73.9066 22.6056 73.3958 22.8663C72.8846 23.1269 72.3203 23.2661 71.7467 23.2729C68.8993 23.2729 67.0237 21.2179 67.0237 18.3118C67.0237 15.6428 68.6835 13.1921 71.4121 13.1921C72.6385 13.1921 73.7841 13.5277 74.4561 14.4578H74.495V8.9565H77.4613L77.4616 23.0358ZM63.2187 17.1558C63.2242 16.9153 63.181 16.6763 63.0918 16.453C63.0023 16.2298 62.8683 16.027 62.6982 15.857C62.5281 15.687 62.3253 15.5534 62.1021 15.464C61.8786 15.3747 61.6397 15.3317 61.3992 15.3375C60.8815 15.3053 60.3716 15.4779 59.9798 15.818C59.5881 16.1581 59.3458 16.6386 59.305 17.1558H63.2187ZM65.729 21.3849C65.2366 21.9821 64.6174 22.4622 63.9166 22.7907C63.2156 23.119 62.4503 23.2875 61.6764 23.2837C58.713 23.2837 56.3403 21.3056 56.3403 18.2424C56.3403 15.1792 58.7127 13.202 61.6764 13.202C64.4464 13.202 66.1834 15.1776 66.1834 18.2424V19.1715H59.305C59.3905 19.6985 59.6637 20.1768 60.0743 20.5182C60.4846 20.8596 61.0047 21.0413 61.5385 21.0296C61.9601 21.027 62.3747 20.9189 62.7442 20.7152C63.1134 20.5115 63.4261 20.2187 63.6533 19.8633L65.729 21.3849ZM36.2689 13.4949H39.1148V14.7992H39.1553C39.4395 14.3122 39.8507 13.9115 40.3449 13.64C40.8391 13.3685 41.3978 13.2363 41.9613 13.2576C44.9664 13.2576 45.5196 15.2347 45.5196 17.8034V23.037H42.5561V18.397C42.5561 17.2894 42.5358 15.8657 41.0127 15.8657C39.4723 15.8657 39.2346 17.0718 39.2346 18.3165V23.0358H36.2711L36.2689 13.4949ZM47.0224 8.95743H49.9858V17.374L53.3444 13.4897H56.9778L53.0882 17.908L56.896 23.0417H53.1713L50.0253 18.3242H49.9865V23.041H47.023L47.0224 8.95743ZM31.6623 13.494H34.6258V23.0376H31.6623V13.494ZM33.144 8.74937C33.484 8.74943 33.8164 8.85031 34.099 9.03925C34.3817 9.22818 34.602 9.49668 34.7321 9.81084C34.8621 10.125 34.8961 10.4706 34.8298 10.8041C34.7634 11.1375 34.5996 11.4438 34.3592 11.6842C34.1188 11.9246 33.8124 12.0883 33.479 12.1546C33.1455 12.2209 32.7999 12.1868 32.4858 12.0567C32.1717 11.9266 31.9032 11.7063 31.7143 11.4236C31.5254 11.1409 31.4246 10.8085 31.4246 10.4685C31.4246 10.2427 31.4691 10.0192 31.5555 9.81053C31.6419 9.60195 31.7685 9.41241 31.9282 9.25278C32.0879 9.09316 32.2775 8.96652 32.486 8.88014C32.6947 8.79376 32.9182 8.74933 33.144 8.74937ZM21.5028 8.95959H24.5876V20.1961H30.2985V23.0429H21.5028V8.95959Z" fill="#0A66C2"/>
</svg>
