<svg width="95" height="32" viewBox="0 0 95 32" fill="none" xmlns="http://www.w3.org/2000/svg">
<path d="M20.5041 24.7109C19.3909 24.9063 18.2581 24.965 17.0862 25.1211L13.5119 14.6524V25.5704C12.3987 25.6875 11.3831 25.8438 10.3284 26V6H13.2972L17.3596 17.3478V6H20.5041V24.7109ZM26.6565 13.3242C27.8675 13.3242 29.723 13.2656 30.8362 13.2656V16.3905C29.4494 16.3905 27.8284 16.3905 26.6565 16.4492V21.0977C28.4925 20.9805 30.3284 20.8241 32.1838 20.7655V23.7732L23.5314 24.4569V6H32.1838V9.125H26.6565V13.3242ZM43.8049 9.12508H40.5627V23.5001C39.508 23.5001 38.4533 23.5001 37.4379 23.539V9.12508H34.1957V6H43.805L43.8049 9.12508ZM48.883 13.1094H53.1604V16.2344H48.883V23.3243H45.8164V6H54.5471V9.125H48.883V13.1094ZM59.6252 20.5898C61.4026 20.6288 63.1993 20.7657 64.9377 20.8632V23.9492C62.1448 23.7733 59.3518 23.5978 56.5003 23.539V6H59.6252V20.5898ZM67.5744 24.1641C68.5705 24.2227 69.6252 24.2814 70.6408 24.3984V6H67.5744V24.1641ZM84.3323 6L80.3674 15.5117L84.3323 26C83.1603 25.8438 81.9885 25.6289 80.8165 25.4335L78.5706 19.6524L76.2856 24.965C75.1526 24.7695 74.0588 24.7109 72.9262 24.5546L76.9496 15.3945L73.3167 6H76.6759L78.7267 11.2539L80.9143 6H84.3323V6Z" fill="#D81F26"/>
</svg>
