<svg width="102" height="32" viewBox="0 0 102 32" fill="none" xmlns="http://www.w3.org/2000/svg">
<path d="M36.1865 21.8153L37.1652 19.5277C38.2369 20.3213 39.6347 20.7414 41.0327 20.7414C42.0579 20.7414 42.7102 20.3447 42.7102 19.7379C42.6868 18.0571 36.536 19.3643 36.4892 15.1385C36.4658 12.9909 38.3765 11.3335 41.0795 11.3335C42.6868 11.3335 44.2948 11.7305 45.4362 12.6411L44.5217 14.9775C43.4714 14.3022 42.1742 13.8313 40.9396 13.8313C40.1008 13.8313 39.5414 14.228 39.5414 14.7419C39.5648 16.3993 45.7627 15.4888 45.8326 19.5277C45.8326 21.7221 43.9683 23.2629 41.3121 23.2629C39.3552 23.2629 37.5616 22.7961 36.1865 21.8153ZM75.1585 18.6993C74.9114 19.1383 74.552 19.5036 74.1172 19.7579C73.6823 20.0121 73.1878 20.1461 72.684 20.1462C71.1142 20.1462 69.8417 18.8711 69.8417 17.2982C69.8417 15.7253 71.1142 14.4502 72.684 14.4502C73.1878 14.4502 73.6823 14.5843 74.1172 14.8385C74.552 15.0927 74.9114 15.4581 75.1585 15.8971L77.8795 14.3867C76.8603 12.5652 74.9162 11.3335 72.684 11.3335C69.3963 11.3335 66.7311 14.0037 66.7311 17.2982C66.7311 20.5923 69.3963 23.2629 72.684 23.2629C74.9162 23.2629 76.8603 22.0312 77.8795 20.2097L75.1585 18.6993ZM47.5983 23.0293H50.9999V6.36829H47.5986L47.5983 23.0293ZM79.5974 6.36829V23.0293H82.9991V18.0377L87.03 23.0293H91.3782L86.2521 17.0994L91.0052 11.5661H86.8436L82.9991 16.1664V6.36829H79.5974ZM61.4801 11.5668V12.9211C60.9211 11.9871 59.5463 11.3335 58.1018 11.3335C55.1194 11.3335 52.7663 13.9717 52.7663 17.2865C52.7663 20.6013 55.1194 23.2629 58.1018 23.2629C59.5463 23.2629 60.9211 22.6092 61.4801 21.6753V23.0293H64.8818V11.5668H61.4801ZM61.4801 18.7224C60.9909 19.5394 59.9657 20.1459 58.8242 20.1459C57.254 20.1459 55.9816 18.8711 55.9816 17.2982C55.9816 15.7253 57.254 14.4502 58.8242 14.4502C59.9657 14.4502 60.9909 15.0804 61.4801 15.9205V18.7224Z" fill="black"/>
<path d="M18.2219 6C17.1195 6 16.226 6.89554 16.226 7.99993C16.2257 8.26229 16.2771 8.52215 16.3773 8.76465C16.4775 9.00715 16.6244 9.22754 16.8097 9.41326C16.9951 9.59897 17.2152 9.74636 17.4575 9.847C17.6998 9.94765 17.9595 9.99959 18.2219 9.99985H20.2181V7.99993C20.2186 7.47001 20.0085 6.96163 19.6341 6.58657C19.2598 6.21153 18.7518 6.00053 18.2219 6ZM18.2219 11.3331H12.8991C11.7967 11.3331 10.9032 12.2287 10.9032 13.3334C10.9032 14.4378 11.7967 15.3333 12.8991 15.3333H18.2222C19.3243 15.3333 20.2181 14.4378 20.2181 13.3334C20.2181 12.2287 19.3243 11.3331 18.2219 11.3331Z" fill="#2FBDEE"/>
<path d="M30.8637 13.3334C30.8637 12.2287 29.9698 11.3331 28.8674 11.3331C27.765 11.3331 26.8715 12.2287 26.8715 13.3334V15.3333H28.8674C29.3974 15.3328 29.9053 15.1218 30.2797 14.7468C30.6541 14.3717 30.8641 13.8633 30.8637 13.3334ZM25.5409 13.3334V7.99993C25.5413 7.47001 25.3313 6.96163 24.9569 6.58657C24.5825 6.21153 24.0746 6.00053 23.5446 6C22.4422 6 21.5488 6.89554 21.5488 7.99993V13.3331C21.5488 14.4381 22.4422 15.3337 23.5446 15.3337C24.0746 15.3331 24.5825 15.1221 24.9569 14.7471C25.3313 14.372 25.5413 13.8633 25.5409 13.3334Z" fill="#29AD72"/>
<path d="M23.5446 26C24.0746 25.9995 24.5825 25.7885 24.9569 25.4134C25.3313 25.0384 25.5413 24.53 25.5409 24.0001C25.5413 23.4702 25.3313 22.9618 24.9569 22.5867C24.5825 22.2117 24.0746 22.0007 23.5446 22.0002H21.5488V24.0001C21.5488 25.1045 22.4422 26 23.5446 26ZM23.5446 20.6669H28.8677C29.9698 20.6669 30.8637 19.7714 30.8637 18.6667C30.8641 18.1367 30.6541 17.6283 30.2797 17.2533C29.9053 16.8783 29.3974 16.6673 28.8674 16.6667H23.5446C22.4422 16.6667 21.5488 17.5623 21.5488 18.6667C21.5484 18.929 21.5999 19.1888 21.7001 19.4313C21.8002 19.6739 21.9472 19.8942 22.1325 20.08C22.3178 20.2656 22.5379 20.413 22.7803 20.5137C23.0225 20.6143 23.2823 20.6666 23.5446 20.6669Z" fill="#E9A929"/>
<path d="M10.9032 18.6667C10.9029 18.929 10.9544 19.1888 11.0545 19.4313C11.1547 19.6739 11.3016 19.8942 11.487 20.08C11.6723 20.2656 11.8924 20.413 12.1347 20.5137C12.377 20.6143 12.6367 20.6663 12.8991 20.6665C13.429 20.666 13.937 20.455 14.3114 20.08C14.6857 19.7049 14.8958 19.1965 14.8954 18.6667V16.6667H12.8991C11.7967 16.6667 10.9032 17.5623 10.9032 18.6667ZM16.226 18.6667V23.9998C16.226 25.1045 17.1195 26 18.2219 26C18.7518 25.9995 19.2598 25.7885 19.6341 25.4134C20.0085 25.0384 20.2186 24.53 20.2181 24.0001V18.6667C20.2184 18.4043 20.167 18.1443 20.0668 17.9018C19.9666 17.6593 19.8196 17.4389 19.6343 17.2532C19.4489 17.0674 19.2287 16.9201 18.9864 16.8195C18.7441 16.7188 18.4843 16.6669 18.2219 16.6667C17.1195 16.6667 16.226 17.5623 16.226 18.6667Z" fill="#DC1C50"/>
</svg>
